<svg width="180" height="67" viewBox="0 0 487 148" fill="none" xmlns="http://www.w3.org/2000/svg">
<path d="M144.307 44.0509H165.577C178.867 44.0509 189.547 54.5409 189.547 67.8309C189.547 81.1209 178.857 91.7009 165.577 91.7009H156.337V112.301H144.307V44.0509ZM165.577 80.3509C172.217 80.3509 177.607 75.2509 177.607 67.8409C177.607 60.4309 172.217 55.0409 165.577 55.0409H156.337V80.3609H165.577V80.3509Z" fill="#012121"/>
<path d="M194.727 85.6409C194.727 70.0409 205.897 57.5309 221.007 57.5309C230.437 57.5309 237.757 62.6309 241.127 69.6609H241.507V59.0709H253.247V112.311H241.507V101.911H241.127C236.507 110.291 229.577 113.751 221.007 113.751C205.897 113.751 194.727 101.241 194.727 85.6409ZM239.777 85.6409C239.777 76.0109 233.137 68.8909 223.507 68.8909C213.877 68.8909 207.427 76.0109 207.427 85.6409C207.427 95.2709 213.977 102.391 223.507 102.391C233.037 102.391 239.777 95.1709 239.777 85.6409Z" fill="#012121"/>
<path d="M292.617 85.4509C292.617 69.8509 305.327 57.6309 321.597 57.6309C337.867 57.6309 350.577 69.8609 350.577 85.8409C350.577 86.7109 350.477 88.2509 350.197 89.6909H305.527C306.877 97.0109 313.707 102.491 321.797 102.491C328.147 102.491 333.447 99.5109 335.947 94.1109H349.237C345.487 105.571 334.897 113.751 321.607 113.751C305.337 113.751 292.627 101.041 292.627 85.4509H292.617ZM337.197 80.5409C336.137 74.1909 329.877 68.8909 321.407 68.8909C312.937 68.8909 306.577 73.8009 305.717 80.5409H337.197Z" fill="#012121"/>
<path d="M266.757 53.5509L278.787 44.0509V101.041H287.567V112.301H266.747V53.5409L266.757 53.5509Z" fill="#012121"/>
<path d="M428.337 85.4509C428.337 69.8509 441.047 57.6309 457.317 57.6309C473.587 57.6309 486.297 69.8609 486.297 85.8409C486.297 86.7109 486.197 88.2509 485.917 89.6909H441.247C442.597 97.0109 449.427 102.491 457.517 102.491C463.867 102.491 469.167 99.5109 471.667 94.1109H484.957C481.207 105.571 470.617 113.751 457.327 113.751C441.057 113.751 428.347 101.041 428.347 85.4509H428.337ZM472.907 80.5409C471.847 74.1909 465.587 68.8909 457.117 68.8909C448.647 68.8909 442.287 73.8009 441.427 80.5409H472.907Z" fill="#012121"/>
<path d="M360.497 53.5509L372.597 44.0509V59.0809H385.647V70.3409H372.597V101.041H385.357V112.301H360.497V53.5409V53.5509Z" fill="#012121"/>
<path d="M396.187 53.5509L408.287 44.0509V59.0809H421.337V70.3409H408.287V101.041H421.047V112.301H396.187V53.5409V53.5509Z" fill="#012121"/>
</svg>
