<svg width="40" height="48" viewBox="0 0 40 48" fill="none" xmlns="http://www.w3.org/2000/svg">
<path d="M20 40.9156V47.0942L40 35.547V29.3694L20 40.9156Z" fill="#B860E2"/>
<path d="M34.6334 28.109L39.9999 25.0056V12.453L34.6334 9.35471V28.109Z" fill="#D15EC1"/>
<path d="M19.995 7.14152L20 7.13852L23.7923 9.31456L23.7753 9.32458L30.8702 13.4203V7.18158L20 0.905792L14.5974 4.02516L19.995 7.14152Z" fill="#F76896"/>
<path d="M5.38654 19.9414L0 23.0518V35.5473L5.38654 38.6566V19.9414Z" fill="#EFA96B"/>
<path d="M16.2347 9.31679L10.8342 6.19843L0 12.4532V18.7049L16.2347 9.31679Z" fill="#FD8675"/>
<path d="M20.004 11.4997L9.14575 17.7664V30.3V40.8808L14.5313 43.9902V33.4123L20.004 36.5678L30.8592 30.3V17.7664L20.004 11.4997ZM25.4586 27.1826L20.004 30.331L14.5463 27.1826V20.8838L20.004 17.7354L25.4586 20.8838V27.1826Z" fill="#ADADE0"/>
</svg>
